# xmcd CD database file
# Copyright (C) 1993-1998 Ti Kan
# 
# Track frame offsets:
#     182
#     29605
#     45347
#     57542
#     70340
#     96780
#     112185
#     129955
#     144262
#     161685
#     183015
#     196732
#     216920
#     229917
#     272545
#     285782
#     309142
# 
# Disc length: 4305 seconds
# 
# Revision: 1
# Processed by: cddbd v1.4b41PL1 Copyright (c) Steve Scherf et al.
# Submitted via: DiscPlay 4.0.4
# 
DISCID=e810cf11
DTITLE=Bobby Womack - Understanding Communication
DYEAR=1900
DGENRE=
TTITLE0=I Can Understand It
TTITLE1=Woman's Gotta Have It
TTITLE2=And I Love Her
TTITLE3=Got to Get You Back
TTITLE4=Simple Man
TTITLE5=Ruby Dean
TTITLE6=Thing Called Love
TTITLE7=Sweet Caroline (Good Times Never Seemed So Good)
TTITLE8=Harry Hippie
TTITLE9=Communication
TTITLE10=Come L'Amore
TTITLE11=Fire and Rain
TTITLE12=(If You Don't Want My Love) Give it Back
TTITLE13=Medley:Monologue, They Long to be) Close to You
TTITLE14=Everything is Beautiful
TTITLE15=That's the Way I Feel About Cha
TTITLE16=Yield Not to Temptation
EXTD=
EXTT0=
EXTT1=
EXTT2=
EXTT3=
EXTT4=
EXTT5=
EXTT6=
EXTT7=
EXTT8=
EXTT9=
EXTT10=
EXTT11=
EXTT12=
EXTT13=
EXTT14=
EXTT15=
EXTT16=
PLAYORDER=
